<svg xmlns="http://www.w3.org/2000/svg" width="398.292" height="58.348" viewBox="0 0 398.292 58.348">
  <g id="Group_12" data-name="Group 12" transform="translate(-166.91 -992.112)">
    <path id="Icon_awesome-slack-hash" data-name="Icon awesome-slack-hash" d="M55.418,31.861A4.521,4.521,0,0,0,49.7,29.016l-5.639,1.876L40.3,19.712l5.639-1.876a4.506,4.506,0,1,0-2.857-8.547l-5.639,1.876L35.5,5.327a4.517,4.517,0,0,0-8.57,2.857l1.95,5.839L17.276,17.9l-1.95-5.839a4.517,4.517,0,0,0-8.57,2.857l1.95,5.839L3.079,22.619a4.515,4.515,0,0,0-2.857,5.7A4.658,4.658,0,0,0,4.4,31.376c.845.124,1.49-.2,7.166-2.087l3.763,11.18L9.687,42.345a4.53,4.53,0,0,0-2.857,5.7A4.658,4.658,0,0,0,11,51.1c.845.124,1.49-.2,7.166-2.087l1.95,5.839A4.613,4.613,0,0,0,25.833,57.7,4.515,4.515,0,0,0,28.69,52l-1.95-5.839,11.625-3.888,1.95,5.839a4.613,4.613,0,0,0,5.713,2.845,4.515,4.515,0,0,0,2.857-5.7l-1.95-5.839,5.639-1.876a4.476,4.476,0,0,0,2.844-5.677ZM23.858,37.724l-3.763-11.2,11.613-3.888,3.763,11.2Z" transform="translate(166.909 992.561)" fill="#687a8a"/>
    <path id="Icon_awesome-google" data-name="Icon awesome-google" d="M53.5,28.387c0,15.513-10.623,26.552-26.311,26.552a27.188,27.188,0,0,1,0-54.377A26.146,26.146,0,0,1,45.42,7.678l-7.4,7.115c-9.68-9.341-27.682-2.324-27.682,12.958a17.031,17.031,0,0,0,16.85,17.168c10.766,0,14.8-7.718,15.436-11.719H27.188V23.848H53.072A23.835,23.835,0,0,1,53.5,28.387Z" transform="translate(255.244 993.767)" fill="#687a8a"/>
    <path id="Icon_simple-netflix" data-name="Icon simple-netflix" d="M8.085.008,17.962,28v-.015l.782,2.2c4.342,12.285,6.675,18.87,6.687,18.885s.665.042,1.46.083c2.4.1,5.386.374,7.644.645a5.5,5.5,0,0,0,1,.062L25.739,22.081l-.907-2.558L19.794,5.28c-.957-2.7-1.767-5.007-1.809-5.094L17.92,0H8.1ZM25.776.025l-.021,11.033-.017,11.033L24.83,19.53v0L23.655,44.083c1.154,3.258,1.772,5,1.778,5.005s.665.05,1.46.087c2.406.1,5.386.374,7.652.645a5.5,5.5,0,0,0,1,.062c.027-.021.042-11.27.035-24.973L35.562.021H25.776ZM8.085,0V24.936c0,13.711.015,24.942.031,24.959s.865-.062,1.886-.179,2.433-.27,3.14-.333c1.077-.1,4.3-.312,4.674-.312.108,0,.116-.561.131-10.563l.017-10.563.79,2.2.27.782L20.21,6.394l-.4-1.135L17.985.185,17.923,0H8.085Z" transform="translate(338.921 995.461)" fill="#687a8a"/>
    <path id="Icon_awesome-amazon-pay" data-name="Icon awesome-amazon-pay" d="M.984,34.015c.26-.475.588-.554,1.1-.283,1.176.633,2.33,1.29,3.529,1.889a67.4,67.4,0,0,0,14.411,5.237,69.751,69.751,0,0,0,7.149,1.335,68.247,68.247,0,0,0,10.746.588c1.968-.045,3.936-.2,5.893-.43A68.284,68.284,0,0,0,62.282,37.51a1.614,1.614,0,0,1,1.029-.136.914.914,0,0,1,.464,1.572,7.918,7.918,0,0,1-1.086.837A43.316,43.316,0,0,1,51.423,45.2a53.539,53.539,0,0,1-8.5,1.991,48.753,48.753,0,0,1-6.018.543,2.409,2.409,0,0,0-.283.034H34.241a2.409,2.409,0,0,0-.283-.034c-.407-.023-.814-.034-1.21-.045a48.224,48.224,0,0,1-5.7-.6,50.721,50.721,0,0,1-9.095-2.364,50.148,50.148,0,0,1-16.47-9.841,3.921,3.921,0,0,1-.5-.645ZM18.857,4.582l-.486.068a9.153,9.153,0,0,0-4.3,1.708c-.271.192-.52.4-.8.611a.485.485,0,0,1-.045-.158c-.045-.305-.09-.622-.147-.928a.761.761,0,0,0-.86-.747h-1.3c-.781,0-.928.147-.928.928V29.739c0,.113,0,.226.011.339a.551.551,0,0,0,.554.566c.792.011,1.595.011,2.387,0a.56.56,0,0,0,.566-.566c.011-.113.011-.226.011-.339v-8.19c.124.1.192.158.249.215a7.944,7.944,0,0,0,6.9,1.742,6.87,6.87,0,0,0,4.955-3.948,11.569,11.569,0,0,0,1.165-4.988,12.963,12.963,0,0,0-.916-5.633A6.662,6.662,0,0,0,20.9,4.763c-.362-.079-.735-.113-1.109-.17-.317-.011-.622-.011-.939-.011ZM13.5,9.321a.394.394,0,0,1,.192-.373,7.8,7.8,0,0,1,5.158-1.493,4.1,4.1,0,0,1,3.789,2.93,10.759,10.759,0,0,1,.554,3.733,11.2,11.2,0,0,1-.452,3.461A4.373,4.373,0,0,1,17.918,20.8a7.844,7.844,0,0,1-4.231-1.572.4.4,0,0,1-.192-.373c.011-1.595,0-3.179,0-4.774s.011-3.167,0-4.762Zm23.268-4.74c-.113.011-.226.034-.328.045a16.741,16.741,0,0,0-3.269.464c-.69.181-1.357.43-2.025.656a.817.817,0,0,0-.6.871c.011.373-.011.747,0,1.12.011.543.238.69.769.554.882-.226,1.765-.475,2.658-.645a12.517,12.517,0,0,1,4.208-.158,2.739,2.739,0,0,1,1.9.95,3.131,3.131,0,0,1,.6,1.855c.034.939.023,1.878.034,2.817a.887.887,0,0,1-.023.158c-.057-.011-.1,0-.147-.011a20.424,20.424,0,0,0-3.62-.554,9.665,9.665,0,0,0-3.767.441,5.516,5.516,0,0,0-3.326,2.817,5.92,5.92,0,0,0-.441,3.473,4.647,4.647,0,0,0,2.421,3.586,6.548,6.548,0,0,0,4.287.611,9.306,9.306,0,0,0,4.559-2.081.833.833,0,0,1,.181-.124c.068.43.124.837.2,1.244a.643.643,0,0,0,.611.588c.611.011,1.233.011,1.844,0a.547.547,0,0,0,.543-.532,2.963,2.963,0,0,0,.011-.317V10.418a9.049,9.049,0,0,0-.1-1.459A4.49,4.49,0,0,0,41.8,5.52a6.527,6.527,0,0,0-2.466-.8c-.407-.057-.814-.09-1.222-.147-.441.011-.894.011-1.346.011Zm3.959,14.445a.377.377,0,0,1-.17.339,8.613,8.613,0,0,1-4.231,1.685,3.882,3.882,0,0,1-1.9-.2,2.271,2.271,0,0,1-1.4-1.5,3.722,3.722,0,0,1-.011-2.194,2.607,2.607,0,0,1,1.855-1.765,6.937,6.937,0,0,1,2.805-.249c.95.079,1.878.26,2.828.385.181.023.238.113.238.294-.011.543,0,1.075,0,1.618S40.711,18.495,40.722,19.027Zm29.4,14.637c-.113-.566-.543-.781-1.029-.939a10,10,0,0,0-2.375-.441,16.664,16.664,0,0,0-4.434.215,11.68,11.68,0,0,0-4.525,1.765,1.555,1.555,0,0,0-.419.4.578.578,0,0,0-.057.452c.045.17.238.215.407.2a1.832,1.832,0,0,0,.249-.011c.882-.09,1.753-.192,2.636-.283a22.246,22.246,0,0,1,3.88-.1,8.1,8.1,0,0,1,1.629.305,1.141,1.141,0,0,1,.86,1.176,8.322,8.322,0,0,1-.4,2.636,47.8,47.8,0,0,1-1.787,5.1,1.991,1.991,0,0,0-.113.339c-.057.328.136.543.464.464a1.2,1.2,0,0,0,.543-.283,16.5,16.5,0,0,0,1.437-1.516,15.268,15.268,0,0,0,2.794-6.289c.09-.407.158-.826.238-1.233V33.664ZM55.178,19.728Q52.99,13.671,50.8,7.6c-.226-.645-.475-1.278-.713-1.912a.75.75,0,0,0-.724-.543c-.86-.011-1.719-.023-2.59-.011-.283,0-.419.226-.362.509a4.875,4.875,0,0,0,.215.69q3.326,8.229,6.685,16.458a1.535,1.535,0,0,1,.023,1.335c-.373.826-.667,1.7-1.052,2.522a2.6,2.6,0,0,1-1.719,1.5,4.766,4.766,0,0,1-1.742.124c-.283-.023-.566-.09-.848-.113-.385-.023-.577.147-.588.543q-.017.566,0,1.12c.011.622.226.9.837,1.007a12.237,12.237,0,0,0,1.912.226A4.741,4.741,0,0,0,54.6,28.641a14.889,14.889,0,0,0,1.041-2.081q4.021-10.147,7.986-20.316a3.011,3.011,0,0,0,.181-.622c.045-.317-.1-.5-.419-.5-.747-.011-1.5,0-2.251,0a.853.853,0,0,0-.871.588c-.057.158-.124.305-.181.464L56.151,17.488c-.283.814-.577,1.64-.871,2.511-.045-.124-.068-.192-.1-.271Z" transform="translate(407.727 996.468)" fill="#687a8a"/>
    <path id="Icon_awesome-uber" data-name="Icon awesome-uber" d="M52.312,2.25H4.283A4.286,4.286,0,0,0,0,6.533V54.55a4.289,4.289,0,0,0,4.283,4.3H52.3a4.286,4.286,0,0,0,4.283-4.283V6.533A4.267,4.267,0,0,0,52.312,2.25Zm-22.3,45.364A17.156,17.156,0,0,1,11.231,32.266H23.156v2.577a.86.86,0,0,0,.859.859h8.578a.86.86,0,0,0,.859-.859V26.265a.86.86,0,0,0-.859-.859H24.015a.86.86,0,0,0-.859.859v2.577H11.231A17.152,17.152,0,1,1,30.016,47.614Z" transform="translate(508.62 989.862)" fill="#687a8a"/>
  </g>
</svg>
