<svg xmlns="http://www.w3.org/2000/svg" width="872.773" height="83.888" viewBox="0 0 872.773 83.888">
  <g id="Group_3" data-name="Group 3" transform="translate(-166.91 -992.112)">
    <path id="Icon_awesome-slack-hash" data-name="Icon awesome-slack-hash" d="M79.676,44.82a6.5,6.5,0,0,0-8.214-4.09l-8.107,2.7L57.944,27.353l8.107-2.7a6.478,6.478,0,1,0-4.107-12.288l-8.107,2.7-2.8-8.394a6.494,6.494,0,0,0-12.321,4.108l2.8,8.394L24.837,24.745l-2.8-8.394A6.494,6.494,0,0,0,9.712,20.459l2.8,8.394L4.427,31.532A6.491,6.491,0,0,0,.32,39.73a6.7,6.7,0,0,0,6,4.394c1.214.179,2.143-.286,10.3-3L22.034,57.2l-8.107,2.7a6.513,6.513,0,0,0-4.107,8.2,6.7,6.7,0,0,0,6,4.394c1.214.179,2.143-.286,10.3-3l2.8,8.394a6.633,6.633,0,0,0,8.214,4.09,6.491,6.491,0,0,0,4.107-8.2l-2.8-8.394,16.714-5.59,2.8,8.394a6.633,6.633,0,0,0,8.214,4.09,6.491,6.491,0,0,0,4.107-8.2l-2.8-8.394,8.107-2.7a6.436,6.436,0,0,0,4.089-8.162ZM34.3,53.25,28.891,37.14l16.7-5.59L51,47.66Z" transform="translate(166.909 993.745)" fill="#687a8a"/>
    <path id="Icon_awesome-google" data-name="Icon awesome-google" d="M76.918,40.566c0,22.3-15.273,38.175-37.829,38.175a39.09,39.09,0,0,1,0-78.179A37.591,37.591,0,0,1,65.3,10.792L54.662,21.022c-13.918-13.429-39.8-3.342-39.8,18.631A24.486,24.486,0,0,0,39.09,64.335c15.478,0,21.279-11.1,22.193-16.85H39.09V34.041H76.3A34.268,34.268,0,0,1,76.918,40.566Z" transform="translate(370.804 994.738)" fill="#687a8a"/>
    <path id="Icon_simple-netflix" data-name="Icon simple-netflix" d="M8.085.012l14.2,40.24v-.021L23.41,43.4c6.242,17.663,9.6,27.131,9.615,27.152.012,0,.957.06,2.1.12,3.456.149,7.743.538,10.99.927a7.9,7.9,0,0,0,1.435.09L33.467,31.747l-1.3-3.677L24.919,7.591C23.544,3.7,22.378.392,22.319.266L22.226,0H8.1ZM33.521.036,33.491,15.9l-.024,15.863L32.16,28.078v-.006L30.471,63.38c1.659,4.685,2.547,7.184,2.556,7.2s.957.072,2.1.126c3.459.149,7.743.538,11,.927a7.914,7.914,0,0,0,1.435.09c.039-.03.06-16.2.051-35.905L47.59.03H33.521ZM8.085.006V35.851c0,19.713.021,35.86.045,35.884s1.244-.09,2.712-.257,3.5-.389,4.514-.478c1.549-.149,6.183-.448,6.721-.448.155,0,.167-.807.188-15.187l.024-15.187,1.136,3.169.389,1.124,1.7-35.277-.568-1.632L22.319.266l-.09-.26H8.085Z" transform="translate(563.53 996.927)" fill="#687a8a"/>
    <path id="Icon_awesome-amazon-pay" data-name="Icon awesome-amazon-pay" d="M.984,46.9c.374-.683.846-.8,1.578-.407,1.691.911,3.35,1.854,5.074,2.716a96.908,96.908,0,0,0,20.719,7.53,100.283,100.283,0,0,0,10.278,1.919,98.12,98.12,0,0,0,15.45.846c2.83-.065,5.66-.293,8.473-.618a98.175,98.175,0,0,0,26.558-6.961,2.32,2.32,0,0,1,1.48-.2,1.314,1.314,0,0,1,.667,2.261A11.384,11.384,0,0,1,89.7,55.2a62.277,62.277,0,0,1-16.2,7.79A76.975,76.975,0,0,1,61.288,65.85a70.094,70.094,0,0,1-8.652.781,3.464,3.464,0,0,0-.407.049H48.8a3.464,3.464,0,0,0-.407-.049c-.585-.033-1.171-.049-1.74-.065a69.333,69.333,0,0,1-8.2-.862,72.924,72.924,0,0,1-13.076-3.4A72.1,72.1,0,0,1,1.7,48.156a5.637,5.637,0,0,1-.716-.927ZM26.68,4.587l-.7.1A13.16,13.16,0,0,0,19.8,7.14c-.39.276-.748.569-1.155.878a.7.7,0,0,1-.065-.228c-.065-.439-.13-.894-.211-1.334a1.1,1.1,0,0,0-1.236-1.073h-1.87c-1.122,0-1.334.211-1.334,1.334V40.756c0,.163,0,.325.016.488a.792.792,0,0,0,.8.813c1.138.016,2.293.016,3.432,0a.8.8,0,0,0,.813-.813c.016-.163.016-.325.016-.488V28.981c.179.146.276.228.358.309a11.421,11.421,0,0,0,9.921,2.5,9.877,9.877,0,0,0,7.123-5.676,16.633,16.633,0,0,0,1.675-7.172,18.637,18.637,0,0,0-1.317-8.1,9.578,9.578,0,0,0-7.14-6c-.52-.114-1.057-.163-1.594-.244-.455-.016-.894-.016-1.35-.016ZM18.971,11.4a.566.566,0,0,1,.276-.537,11.216,11.216,0,0,1,7.416-2.147,5.888,5.888,0,0,1,5.448,4.212,15.468,15.468,0,0,1,.8,5.367,16.108,16.108,0,0,1-.651,4.977c-1.106,3.464-3.643,4.781-6.928,4.635a11.277,11.277,0,0,1-6.082-2.261.581.581,0,0,1-.276-.537c.016-2.293,0-4.57,0-6.863s.016-4.554,0-6.847ZM52.425,4.587c-.163.016-.325.049-.472.065a24.07,24.07,0,0,0-4.7.667c-.992.26-1.952.618-2.911.943a1.174,1.174,0,0,0-.862,1.252c.016.537-.016,1.073,0,1.61.016.781.342.992,1.106.8,1.269-.325,2.537-.683,3.822-.927a18,18,0,0,1,6.05-.228,3.939,3.939,0,0,1,2.732,1.366,4.5,4.5,0,0,1,.862,2.667c.049,1.35.033,2.7.049,4.05a1.274,1.274,0,0,1-.033.228c-.081-.016-.146,0-.211-.016a29.365,29.365,0,0,0-5.2-.8,13.9,13.9,0,0,0-5.416.634,7.931,7.931,0,0,0-4.781,4.05,8.512,8.512,0,0,0-.634,4.993A6.682,6.682,0,0,0,45.3,31.1a9.414,9.414,0,0,0,6.164.878,13.379,13.379,0,0,0,6.554-2.992,1.2,1.2,0,0,1,.26-.179c.1.618.179,1.2.293,1.789a.925.925,0,0,0,.878.846c.878.016,1.773.016,2.651,0a.787.787,0,0,0,.781-.764,4.26,4.26,0,0,0,.016-.455V12.978a13.01,13.01,0,0,0-.146-2.1,6.456,6.456,0,0,0-3.09-4.944,9.384,9.384,0,0,0-3.545-1.155c-.585-.081-1.171-.13-1.756-.211-.634.016-1.285.016-1.935.016Zm5.692,20.768a.542.542,0,0,1-.244.488,12.384,12.384,0,0,1-6.082,2.423,5.582,5.582,0,0,1-2.732-.293,3.266,3.266,0,0,1-2.017-2.163,5.351,5.351,0,0,1-.016-3.155,3.748,3.748,0,0,1,2.667-2.537,9.974,9.974,0,0,1,4.033-.358c1.366.114,2.7.374,4.066.553.26.033.342.163.342.423-.016.781,0,1.545,0,2.326S58.1,24.59,58.117,25.355ZM100.385,46.4c-.163-.813-.781-1.122-1.48-1.35a14.38,14.38,0,0,0-3.415-.634,23.959,23.959,0,0,0-6.375.309,16.793,16.793,0,0,0-6.505,2.537,2.236,2.236,0,0,0-.6.569.831.831,0,0,0-.081.651c.065.244.342.309.585.293a2.634,2.634,0,0,0,.358-.016c1.269-.13,2.521-.276,3.789-.407a31.984,31.984,0,0,1,5.578-.146,11.651,11.651,0,0,1,2.342.439,1.64,1.64,0,0,1,1.236,1.691,11.964,11.964,0,0,1-.569,3.789,68.723,68.723,0,0,1-2.57,7.335,2.863,2.863,0,0,0-.163.488c-.081.472.2.781.667.667a1.717,1.717,0,0,0,.781-.407,23.728,23.728,0,0,0,2.065-2.179,21.952,21.952,0,0,0,4.017-9.042c.13-.585.228-1.187.342-1.773V46.4ZM78.9,26.363q-3.147-8.709-6.294-17.434C72.282,8,71.924,7.091,71.583,6.18A1.078,1.078,0,0,0,70.542,5.4c-1.236-.016-2.472-.033-3.724-.016-.407,0-.6.325-.52.732a7.009,7.009,0,0,0,.309.992q4.781,11.831,9.612,23.663a2.206,2.206,0,0,1,.033,1.919c-.537,1.187-.96,2.439-1.512,3.627a3.741,3.741,0,0,1-2.472,2.163,6.852,6.852,0,0,1-2.5.179c-.407-.033-.813-.13-1.22-.163-.553-.033-.829.211-.846.781q-.024.813,0,1.61c.016.894.325,1.3,1.2,1.447a17.593,17.593,0,0,0,2.748.325,6.816,6.816,0,0,0,6.424-3.48,21.407,21.407,0,0,0,1.5-2.992Q85.35,21.6,91.05,6.977a4.329,4.329,0,0,0,.26-.894c.065-.455-.146-.716-.6-.716-1.073-.016-2.163,0-3.236,0a1.226,1.226,0,0,0-1.252.846c-.081.228-.179.439-.26.667L80.3,23.143c-.407,1.171-.829,2.358-1.252,3.61-.065-.179-.1-.276-.146-.39Z" transform="translate(734.055 1000.375)" fill="#687a8a"/>
    <path id="Icon_awesome-uber" data-name="Icon awesome-uber" d="M75.212,2.25H6.157A6.162,6.162,0,0,0,0,8.407V77.443a6.166,6.166,0,0,0,6.157,6.175H75.193a6.162,6.162,0,0,0,6.157-6.157V8.407A6.135,6.135,0,0,0,75.212,2.25ZM43.154,67.472A24.665,24.665,0,0,1,16.147,45.4H33.292V49.11a1.236,1.236,0,0,0,1.235,1.235H46.86a1.236,1.236,0,0,0,1.235-1.235V36.777a1.236,1.236,0,0,0-1.235-1.235H34.527a1.236,1.236,0,0,0-1.235,1.235v3.705H16.147a24.66,24.66,0,1,1,27.008,26.99Z" transform="translate(958.333 989.862)" fill="#687a8a"/>
  </g>
</svg>
